<svg id="svg" fill="#000000" stroke="#000000" width="23" height="23" version="1.1" viewBox="144 144 512 512" xmlns="http://www.w3.org/2000/svg" stroke-width="20">
    <g id="IconSvg_bgCarrier" stroke-width="0"></g>
    <g id="IconSvg_tracerCarrier" stroke-linecap="round" stroke-linejoin="round" stroke="#CCCCCC" stroke-width="0">
      <g xmlns="http://www.w3.org/2000/svg">
  <path d="m617.64 608.57h-333.02c-0.50391 0-1.0078 0-1.0078 0.50391l-85.645 17.633c-2.0156 0.50391-4.0312 0.50391-6.0469 0.50391h1.5117 424.71c5.0391 0 9.5742-4.0312 9.5742-9.5742-0.50781-5.0352-4.5352-9.0664-10.078-9.0664z"></path>
  <path d="m197.97 626.71 85.648-18.137c2.0156-0.50391 3.5273-1.5117 4.5352-2.5195l254.93-254.93c3.5273-3.5273 3.5273-9.5742 0-13.098-3.5273-3.5273-9.5742-3.5273-13.098 0l-253.42 252.91-82.625 17.633c-1.0078 0-1.5117 0-2.0156-0.50391-0.50391-0.50391-0.50391-1.0078-0.50391-2.0156l17.633-82.625 252.91-252.91c3.5273-3.5273 3.5273-9.5742 0-13.098-3.5273-3.5273-9.5742-3.5273-13.098 0l-254.93 254.43c-1.5117 1.5117-2.0156 3.0234-2.5195 4.5352l-18.137 85.648c-1.5117 7.0547 0.50391 14.105 5.543 19.145 3.5273 3.5273 8.0625 5.543 12.594 6.0469 2.5195-0.003906 4.5352-0.003906 6.5508-0.50781z"></path>
  <path d="m554.16 326.95c3.5273 3.5273 9.5742 3.5273 13.098 0l48.367-48.367c14.609-14.609 14.609-38.793 0-53.906l-40.305-40.305c-14.609-14.609-38.793-14.609-53.906 0l-48.367 48.367c-3.5273 3.5273-3.5273 9.5742 0 13.098zm42.824-57.938c-2.5195 0-5.0391-1.0078-6.5508-2.5195-3.5273-3.5273-3.5273-9.5742 0-13.098 0.50391-0.50391 0.50391-1.0078 0.50391-1.5117s0-1.0078-0.50391-1.5117c-3.5273-3.5273-3.5273-9.5742 0-13.098 3.5273-3.5273 9.5742-3.5273 13.098 0 4.0312 4.0312 6.0469 9.0703 6.0469 14.609 0 5.543-2.0156 10.578-6.0469 14.609-1.5078 1.5117-4.0273 2.5195-6.5469 2.5195z"></path>
 </g>

      </g>
     <g id="IconSvg_iconCarrier">
      <g xmlns="http://www.w3.org/2000/svg">
  <path d="m617.64 608.57h-333.02c-0.50391 0-1.0078 0-1.0078 0.50391l-85.645 17.633c-2.0156 0.50391-4.0312 0.50391-6.0469 0.50391h1.5117 424.71c5.0391 0 9.5742-4.0312 9.5742-9.5742-0.50781-5.0352-4.5352-9.0664-10.078-9.0664z"></path>
  <path d="m197.97 626.71 85.648-18.137c2.0156-0.50391 3.5273-1.5117 4.5352-2.5195l254.93-254.93c3.5273-3.5273 3.5273-9.5742 0-13.098-3.5273-3.5273-9.5742-3.5273-13.098 0l-253.42 252.91-82.625 17.633c-1.0078 0-1.5117 0-2.0156-0.50391-0.50391-0.50391-0.50391-1.0078-0.50391-2.0156l17.633-82.625 252.91-252.91c3.5273-3.5273 3.5273-9.5742 0-13.098-3.5273-3.5273-9.5742-3.5273-13.098 0l-254.93 254.43c-1.5117 1.5117-2.0156 3.0234-2.5195 4.5352l-18.137 85.648c-1.5117 7.0547 0.50391 14.105 5.543 19.145 3.5273 3.5273 8.0625 5.543 12.594 6.0469 2.5195-0.003906 4.5352-0.003906 6.5508-0.50781z"></path>
  <path d="m554.16 326.95c3.5273 3.5273 9.5742 3.5273 13.098 0l48.367-48.367c14.609-14.609 14.609-38.793 0-53.906l-40.305-40.305c-14.609-14.609-38.793-14.609-53.906 0l-48.367 48.367c-3.5273 3.5273-3.5273 9.5742 0 13.098zm42.824-57.938c-2.5195 0-5.0391-1.0078-6.5508-2.5195-3.5273-3.5273-3.5273-9.5742 0-13.098 0.50391-0.50391 0.50391-1.0078 0.50391-1.5117s0-1.0078-0.50391-1.5117c-3.5273-3.5273-3.5273-9.5742 0-13.098 3.5273-3.5273 9.5742-3.5273 13.098 0 4.0312 4.0312 6.0469 9.0703 6.0469 14.609 0 5.543-2.0156 10.578-6.0469 14.609-1.5078 1.5117-4.0273 2.5195-6.5469 2.5195z"></path>
 </g>

      </g>
      </svg>